<?xml version="1.0" encoding="utf-8"?>
<!-- Generator: Adobe Illustrator 16.0.0, SVG Export Plug-In . SVG Version: 6.00 Build 0)  -->
<!DOCTYPE svg PUBLIC "-//W3C//DTD SVG 1.1//EN" "http://www.w3.org/Graphics/SVG/1.1/DTD/svg11.dtd">
<svg version="1.1" id="Layer_1" xmlns="http://www.w3.org/2000/svg" xmlns:xlink="http://www.w3.org/1999/xlink" x="0px" y="0px"
	 width="1360.63px" height="1131.02px" viewBox="0 0 1360.63 1131.02" enable-background="new 0 0 1360.63 1131.02"
	 xml:space="preserve">
<ellipse fill="#F37242" cx="687.198" cy="496.741" rx="673.432" ry="496.056"/>
<ellipse fill="#F37242" cx="99.376" cy="950.787" rx="99.211" ry="73.08"/>
<g>
	<path fill="#FFFFFF" d="M779.247,637.563c0-96.837-64.598-178.572-153.046-204.501c48.442-22.628,82.015-71.776,82.015-128.774
		c0-78.46-63.604-142.063-142.063-142.063c-78.458,0-142.063,63.603-142.063,142.063c0,56.998,33.572,106.146,82.017,128.774
		c-88.45,25.93-153.047,107.665-153.047,204.501c0,4.885,0.18,9.728,0.503,14.531h-0.503V794.85h426.188V652.094h-0.502
		C779.067,647.29,779.247,642.447,779.247,637.563z"/>
	<path fill="#F37242" d="M728.505,599.922c0-78.333-52.254-144.449-123.802-165.424c39.187-18.304,66.344-58.061,66.344-104.168
		c0-63.466-51.452-114.916-114.917-114.916c-63.466,0-114.916,51.45-114.916,114.916c0,46.107,27.157,85.864,66.344,104.168
		c-71.547,20.975-123.802,87.091-123.802,165.424c0,3.951,0.147,7.87,0.407,11.754h-0.407v134.938h344.75V611.676h-0.408
		C728.36,607.792,728.505,603.873,728.505,599.922z"/>
	<path fill="#FFFFFF" d="M1021.337,687.507c0-66.089-44.088-121.872-104.451-139.567c33.061-15.442,55.973-48.985,55.973-87.884
		c0-53.546-43.408-96.954-96.955-96.954c-53.543,0-96.951,43.408-96.951,96.954c0,38.899,22.91,72.442,55.973,87.884
		c-60.363,17.695-104.449,73.478-104.449,139.567c0,3.334,0.121,6.638,0.344,9.917h-0.344v97.426h290.861v-97.426h-0.346
		C1021.214,694.145,1021.337,690.841,1021.337,687.507z"/>
	<path fill="#F37242" d="M986.704,661.818c0-53.461-35.66-98.583-84.49-112.898c26.744-12.492,45.279-39.625,45.279-71.091
		c0-43.314-35.115-78.427-78.43-78.427c-43.313,0-78.426,35.113-78.426,78.427c0,31.466,18.533,58.599,45.277,71.091
		c-48.828,14.315-84.49,59.437-84.49,112.898c0,2.695,0.1,5.369,0.279,8.021h-0.279v77.055h235.279V669.84h-0.277
		C986.606,667.188,986.704,664.514,986.704,661.818z"/>
</g>
<g>
	<path d="M1065.875,1003.415c0,1.16-0.289,2.159-0.869,2.996c-0.58,0.84-1.387,1.579-2.416,2.223
		c-1.158,0.772-2.318,1.289-3.479,1.546c-1.16,0.26-2.318,0.387-3.479,0.387c-0.387,0-0.709,0-0.967,0
		c-0.26,0-0.58-0.127-0.965-0.387l-29.57,0.387h-8.891l-15.654-0.387h-8.889c-0.387-0.644-0.744-1.286-1.064-1.933
		c-0.322-0.644-0.482-1.159-0.482-1.546c-0.26-0.387-0.387-0.804-0.387-1.257c0-0.449,0-1.063,0-1.836
		c0.127-0.256,0.258-0.579,0.387-0.966c0.127-0.387,0.193-0.773,0.193-1.16c-0.26-0.772-0.387-1.513-0.387-2.222
		c0-0.707,0-1.257,0-1.644c0-0.772,0.064-1.416,0.193-1.933c0.127-0.513,0.387-0.966,0.773-1.353
		c0.256-0.257,0.676-0.547,1.256-0.869c0.58-0.32,1.256-0.677,2.029-1.063l1.74-0.193c0.512,0,1.092,0.033,1.738,0.097
		c0.643,0.066,1.354,0.163,2.127,0.29c0.771,0,1.545,0.066,2.318,0.193c0.773,0.13,1.674,0.193,2.705,0.193
		c0.773,0.26,1.609,0.453,2.514,0.579c0.898,0.13,1.738,0.193,2.512,0.193c0.9,0.13,1.77,0.26,2.609,0.387
		c0.836,0.13,1.705,0.193,2.609,0.193c0.514-0.257,1.029-1.576,1.545-3.962c0.514-2.383,0.967-5.895,1.354-10.532
		c0.387-4.379,0.967-7.73,1.738-10.05c0.773-2.319,1.74-3.479,2.9-3.479c1.158,0,2.479,0.097,3.961,0.29
		c1.48,0.193,2.996,0.42,4.543,0.677c1.545,0.387,2.928,0.677,4.154,0.87c1.223,0.192,2.223,0.289,2.996,0.289
		c0.387,1.16,0.676,2.386,0.869,3.673c0.193,1.289,0.289,2.705,0.289,4.251c0,0.26-0.033,0.55-0.096,0.87
		c-0.066,0.323-0.098,0.677-0.098,1.063c0,0.387,0,0.807,0,1.257c0,0.453,0,0.936,0,1.449c-0.129,1.159-0.191,2.192-0.191,3.092
		c0,0.903,0,1.613,0,2.126c0,0.773,0,1.45,0,2.029c0,0.58,0.063,1.13,0.191,1.643c0,0.646,0.064,1.29,0.193,1.933
		c0.127,0.646,0.387,1.16,0.773,1.547c0.9-0.127,1.643-0.193,2.223-0.193s0.996,0,1.256,0h1.547l2.125-1.739
		c2.061,0.386,4.252,0.742,6.572,1.063c2.318,0.323,4.701,0.55,7.15,0.677c1.932,0.646,3.383,1.836,4.348,3.575
		C1065.393,998.487,1065.875,1000.71,1065.875,1003.415z M1066.842,1058.108c0,0.903-0.289,2.416-0.869,4.542
		s-1.449,4.865-2.609,8.214c-0.646,1.676-1.16,3.028-1.547,4.059c-0.385,1.032-0.645,1.612-0.771,1.739l-10.051,10.05
		c-1.932,0.902-3.801,1.739-5.604,2.512c-1.807,0.773-3.672,1.547-5.605,2.319c-1.932,0.646-3.834,1.097-5.701,1.354
		c-1.869,0.259-3.576,0.386-5.121,0.386c-3.609,0-6.99-0.386-10.146-1.159c-3.158-0.773-6.025-1.933-8.6-3.479
		c-1.934-0.9-4.125-2.383-6.572-4.445c-2.449-2.06-5.154-4.639-8.117-7.73l-1.545-1.546c-0.131,0-0.26-0.16-0.387-0.483
		c-0.131-0.32-0.26-0.677-0.387-1.063c-0.26-0.387-0.482-0.87-0.676-1.45c-0.193-0.579-0.357-1.256-0.484-2.029
		c-1.158-2.705-1.965-4.861-2.416-6.474c-0.451-1.609-0.676-2.609-0.676-2.996c0-1.933,0.193-4.252,0.58-6.957
		c0.387-2.706,0.967-5.925,1.74-9.663c0.771-3.479,1.609-6.378,2.512-8.697c0.9-2.319,1.865-3.992,2.898-5.024
		c0.514-0.387,1.063-0.773,1.643-1.16c0.58-0.386,1.256-0.772,2.029-1.159c1.547-1.933,3.059-3.639,4.543-5.121
		c1.479-1.48,2.801-2.673,3.961-3.576c1.547-1.159,3.285-2.059,5.219-2.705c1.932-0.644,4.059-0.967,6.377-0.967
		c0.9,0,1.963,0.066,3.189,0.193c1.223,0.13,2.609,0.26,4.154,0.387c3.219,0.646,5.861,1.063,7.924,1.256
		c2.061,0.193,3.479,0.29,4.252,0.29c0.514,0.517,1.256,0.967,2.223,1.354c0.967,0.386,2.223,0.772,3.768,1.159
		c1.287,0.387,2.576,0.743,3.865,1.063c1.287,0.323,2.576,0.55,3.867,0.677c2.574,2.706,4.764,5.381,6.57,8.021
		c1.803,2.643,3.154,5.251,4.059,7.827c0.773,2.706,1.383,5.768,1.836,9.18C1066.615,1050.218,1066.842,1053.987,1066.842,1058.108z
		 M1024.324,1033.371c-0.26,0-0.516,0.066-0.773,0.193c-0.26,0.13-0.58,0.26-0.967,0.387c-0.385,0.26-0.838,0.483-1.352,0.676
		c-0.518,0.193-1.033,0.42-1.547,0.677c-0.516,0.26-1,0.517-1.449,0.773c-0.453,0.26-0.936,0.516-1.449,0.772
		c-0.387,0.26-0.773,0.483-1.16,0.677s-0.773,0.356-1.158,0.483c-0.904,0.387-1.74,1.129-2.514,2.223
		c-0.773,1.096-1.545,2.415-2.318,3.962c-0.387,1.032-0.84,2.191-1.354,3.479c-0.516,1.289-1.033,2.771-1.545,4.444
		c0.771,4.639,1.77,8.57,2.994,11.789c1.223,3.223,2.736,5.605,4.543,7.151c1.285,1.546,2.928,2.675,4.928,3.382
		c1.996,0.71,4.281,1.063,6.861,1.063c2.574,0,5.15-0.513,7.73-1.546c2.574-1.029,5.023-2.512,7.344-4.444
		c2.318-1.933,4.088-4.089,5.314-6.475c1.223-2.383,1.836-4.929,1.836-7.634c0-2.446-0.387-4.832-1.16-7.151
		c-0.773-2.318-1.869-4.571-3.285-6.764c-1.676-2.189-3.512-3.832-5.508-4.929c-2-1.093-4.154-1.643-6.475-1.643
		c-0.387,0-0.902-0.03-1.545-0.097c-0.646-0.063-1.354-0.29-2.127-0.676c-0.516,0-0.967-0.063-1.354-0.193
		c-0.387-0.127-0.771-0.193-1.158-0.193c-0.26-0.127-0.518-0.224-0.773-0.29C1024.645,1033.404,1024.451,1033.371,1024.324,1033.371
		z M1116.125,1107.584c0,0.773-0.164,1.449-0.484,2.029c-0.322,0.58-0.676,1.126-1.063,1.643c-1.033,0.387-2.029,0.837-2.996,1.353
		c-0.967,0.514-1.902,1.03-2.803,1.547c-1.418,0.643-2.607,1.126-3.574,1.449c-0.967,0.32-1.836,0.483-2.609,0.483
		c-1.16,0-2.096-0.097-2.803-0.29c-0.709-0.193-1.256-0.483-1.643-0.87c-0.387-0.26-0.676-0.55-0.869-0.869
		c-0.193-0.323-0.357-0.613-0.484-0.87c-0.26-0.13-0.451-0.29-0.578-0.483c-0.131-0.192-0.193-0.419-0.193-0.676
		c-0.518-0.646-0.871-1.227-1.064-1.739c-0.193-0.517-0.289-0.967-0.289-1.354c0-2.318,0.029-5.188,0.096-8.6
		c0.064-3.412,0.225-7.44,0.484-12.079c0.127-4.509,0.256-8.438,0.387-11.789c0.127-3.349,0.193-6.185,0.193-8.504
		c0-0.772-0.098-1.546-0.291-2.318c-0.193-0.773-0.482-1.48-0.869-2.126c-0.646,1.676-1.482,3.158-2.512,4.444
		c-1.033,1.29-2.32,2.386-3.865,3.286l-5.025,0.193h-2.705c-1.676,0-3.094-0.03-4.252-0.097c-1.16-0.063-2-0.29-2.514-0.677
		c-0.646-0.127-1.449-0.644-2.416-1.546c-0.965-0.9-2.029-2.189-3.188-3.865v-13.143c0-1.416,0.32-2.608,0.967-3.575
		c0.643-0.966,1.672-1.836,3.092-2.608c1.285-0.514,2.705-0.967,4.252-1.354c1.545-0.386,3.154-0.579,4.83-0.579
		c2.32,0,4.639,0.386,6.959,1.159c2.318,0.773,4.701,1.869,7.15,3.285l0.193-24.351c0-0.387-0.066-0.87-0.193-1.449
		c-0.131-0.58-0.26-1.257-0.387-2.029c-0.26-0.773-0.42-1.45-0.482-2.029c-0.066-0.58-0.098-1.063-0.098-1.45v-15.654
		c-0.129-0.126-0.227-0.289-0.289-0.482c-0.066-0.193-0.164-0.354-0.291-0.483c0-0.127-0.033-0.257-0.096-0.387
		c-0.066-0.127-0.324-0.063-0.773,0.193c-0.453,0.26-1,0.613-1.643,1.063c-0.646,0.453-1.227,0.937-1.74,1.45
		c-0.646,0.646-1.449,1.096-2.416,1.353c-0.965,0.26-2.158,0.387-3.574,0.387c-3.479,0-6.314-0.257-8.504-0.773
		c-2.191-0.513-3.672-1.353-4.445-2.512c-1.033-1.16-1.771-2.899-2.223-5.219c-0.453-2.319-0.676-5.281-0.676-8.89
		c0-1.673,0.354-3.189,1.063-4.542c0.707-1.353,1.77-2.416,3.189-3.188c1.285-0.773,2.832-1.383,4.639-1.836
		c1.803-0.45,3.672-0.677,5.604-0.677c2.32,0,4.475,0.387,6.475,1.159c1.996,0.773,3.895,1.869,5.701,3.286
		c0.127-1.16,0.289-2.35,0.482-3.575c0.193-1.224,0.418-2.609,0.678-4.155c0-0.387-0.033-0.9-0.098-1.546
		c-0.066-0.644-0.162-1.287-0.289-1.934c0-0.772-0.066-1.609-0.193-2.512c-0.131-0.9-0.193-1.866-0.193-2.899
		c-0.26-1.933-0.42-3.542-0.482-4.831c-0.066-1.287-0.098-2.253-0.098-2.899c0-1.159,0-2.286,0-3.382
		c0-1.093,0.127-2.223,0.387-3.382c0.127-0.773,0.387-1.547,0.773-2.319c0.387-0.773,0.967-1.546,1.738-2.319
		c0.387,0,0.805-0.063,1.258-0.193c0.449-0.127,0.996-0.257,1.643-0.387c0.256,0,0.545,0,0.869,0c0.32,0,0.676,0,1.063,0
		s0.74-0.03,1.063-0.097c0.32-0.063,0.678-0.097,1.064-0.097c1.416,0,2.801,0.163,4.154,0.483c1.354,0.323,2.609,0.743,3.77,1.257
		c0.385,3.092,0.738,6.217,1.063,9.373c0.32,3.158,0.609,6.348,0.869,9.566c0.127,3.479,0.289,6.99,0.482,10.532
		c0.193,3.546,0.291,7.121,0.291,10.727c0,1.419-0.033,2.966-0.098,4.639c-0.066,1.676-0.096,3.608-0.096,5.798
		c0,2.063-0.033,4.381-0.098,6.957c-0.066,2.579-0.096,5.284-0.096,8.117c-0.26,5.928-0.387,10.47-0.387,13.625
		c0,3.158,0,4.864,0,5.121v28.023c0,0.773,0.031,1.676,0.098,2.706c0.063,1.032,0.223,2.191,0.482,3.479
		c0.127,1.546,0.256,2.802,0.387,3.769c0.127,0.966,0.193,1.709,0.193,2.223c0,0.772-0.066,1.676-0.193,2.705
		c-0.131,1.033-0.26,2.126-0.387,3.286c-0.26,1.419-0.387,2.578-0.387,3.479c0,0.902,0,1.546,0,1.933c0,1.159,0,2.579,0,4.252
		c0,1.676,0.127,3.545,0.387,5.604c0.127,2.063,0.256,3.769,0.387,5.121c0.127,1.353,0.193,2.223,0.193,2.609s0,0.933,0,1.643
		c0,0.707,0.127,1.513,0.387,2.416c0.127,0.772,0.256,1.449,0.387,2.029C1116.057,1106.907,1116.125,1107.324,1116.125,1107.584z
		 M1145.693,1111.836c-0.131,0-0.357,0.063-0.676,0.193c-0.324,0.127-0.744,0.32-1.258,0.579c-0.385,0.257-0.936,0.514-1.643,0.773
		c-0.709,0.257-1.516,0.58-2.416,0.967c-1.418,0.772-2.674,1.286-3.768,1.546c-1.096,0.257-2.029,0.387-2.803,0.387
		c-1.033,0-1.902-0.097-2.609-0.29c-0.709-0.193-1.256-0.483-1.643-0.87c-0.646-0.772-1.191-1.482-1.643-2.126
		c-0.453-0.646-0.807-1.289-1.063-1.933c-0.516-0.646-0.84-1.353-0.967-2.126c-0.129-0.772-0.193-1.612-0.193-2.512
		c0-2.192,0.031-4.608,0.098-7.248c0.063-2.639,0.223-5.508,0.482-8.6c0.387-6.958,0.74-12.659,1.063-17.104
		c0.32-4.445,0.484-7.635,0.484-9.567v-8.89v-4.639v-4.638v-3.865v-3.672v-2.899v-2.513c0-3.092-0.098-5.668-0.291-7.73
		c-0.193-2.06-0.42-3.479-0.676-4.251c-0.387-0.257-0.646-0.58-0.773-0.967c-0.129-0.387-0.193-0.773-0.193-1.159
		c0-0.257,0.064-0.547,0.193-0.87c0.127-0.32,0.258-0.677,0.387-1.063c0.127-0.257,0.223-0.547,0.289-0.87
		c0.064-0.32,0.098-0.677,0.098-1.063c0-1.547-0.066-3.576-0.193-6.088c-0.131-2.513-0.322-5.508-0.58-8.987
		c-0.26-3.219-0.42-6.088-0.482-8.6c-0.066-2.513-0.098-4.669-0.098-6.475c0-0.644,0.031-1.416,0.098-2.319
		c0.063-0.899,0.223-1.933,0.482-3.092c0.258-1.16,0.449-2.189,0.58-3.093c0.127-0.899,0.193-1.673,0.193-2.318
		c0-1.417-0.066-2.803-0.193-4.155c-0.131-1.354-0.26-2.673-0.387-3.962c-0.26-1.16-0.482-2.513-0.676-4.059
		s-0.357-3.285-0.484-5.218c0.127-0.9,0.291-1.866,0.484-2.899c0.193-1.029,0.416-2.126,0.676-3.285
		c0.387-1.16,0.836-2.156,1.354-2.996c0.514-0.836,1.158-1.576,1.932-2.223h6.186c1.416,0,2.768,0.163,4.059,0.483
		c1.285,0.323,2.574,0.743,3.865,1.256c0.387,3.865,0.705,7.731,0.965,11.597c0.258,3.865,0.387,7.73,0.387,11.596
		c0,1.676,0.031,3.802,0.098,6.377c0.063,2.579,0.289,5.542,0.676,8.891c0,1.806,0.064,3.448,0.193,4.928
		c0.127,1.483,0.193,2.869,0.193,4.155c0.127,1.289,0.223,2.482,0.289,3.575c0.064,1.097,0.098,2.029,0.098,2.803
		c0,1.806-0.066,3.512-0.193,5.121c-0.131,1.612-0.193,3.126-0.193,4.542c-0.516,5.024-0.869,8.923-1.063,11.692
		c-0.193,2.772-0.291,4.349-0.291,4.734l0.58,32.082c0,0.773,0.031,1.739,0.098,2.899c0.063,1.159,0.223,2.448,0.482,3.865
		c0,0.902,0.063,1.676,0.193,2.318c0.127,0.646,0.193,1.227,0.193,1.739c0.127,0.517,0.223,0.937,0.289,1.257
		c0.064,0.323,0.098,0.55,0.098,0.676c0,0.517-0.033,0.967-0.098,1.354c-0.066,0.387-0.096,0.772-0.096,1.159s0,0.743,0,1.063
		c0,0.322,0,0.549,0,0.676c-0.387,2.192-0.613,3.932-0.676,5.219c-0.066,1.289-0.098,1.999-0.098,2.126c0,1.289,0,2.738,0,4.348
		c0,1.613,0.127,3.449,0.387,5.508c0.127,1.933,0.256,3.546,0.387,4.832c0.127,1.289,0.193,2.126,0.193,2.513s0,0.869,0,1.449
		s0.127,1.256,0.387,2.029c0.127,0.773,0.256,1.383,0.387,1.836c0.127,0.45,0.193,0.87,0.193,1.256c0,1.16-0.131,2.126-0.387,2.899
		C1146.4,1110.676,1146.08,1111.319,1145.693,1111.836z"/>
	<path d="M1347.652,1016.171c0,0.387,0.064,0.743,0.193,1.063c0.127,0.323,0.258,0.613,0.387,0.87
		c0.127,0.387,0.258,0.743,0.387,1.063c0.127,0.323,0.258,0.613,0.387,0.87c0.127,0.773,0.256,1.516,0.387,2.223
		c0.127,0.709,0.193,1.322,0.193,1.836c0,1.159-0.164,2.223-0.482,3.188c-0.324,0.967-0.744,1.836-1.258,2.609
		c-0.516,1.032-1.129,1.739-1.836,2.126c-0.709,0.387-1.449,0.579-2.223,0.579c-0.645,0-1.352,0-2.125,0s-1.676-0.126-2.705-0.386
		c-1.16-0.127-2.063-0.257-2.707-0.387c-0.646-0.127-1.031-0.193-1.158-0.193l-2.9,0.387c-1.031,0-2.125,0-3.285,0
		s-2.449-0.127-3.865-0.387c-1.545-0.127-2.803-0.257-3.768-0.387c-0.967-0.127-1.643-0.193-2.029-0.193
		c-0.773,0-1.42,0.066-1.934,0.193c-0.516,0.13-0.967,0.26-1.352,0.387l-1.74,0.387c-0.773-0.257-1.387-0.483-1.836-0.677
		c-0.453-0.193-0.869-0.29-1.256-0.29c-0.773,0.387-1.58,0.613-2.416,0.677c-0.84,0.066-1.643,0.097-2.416,0.097
		c-0.902,0-2,0-3.285,0c-1.289,0-2.771-0.127-4.445-0.387c-1.807-0.127-3.189-0.257-4.154-0.387
		c-0.967-0.127-1.645-0.193-2.029-0.193c-0.646,0-1.258,0.033-1.836,0.097c-0.58,0.066-1.193,0.097-1.838,0.097
		c-0.516,0-1.063,0-1.643,0c-0.578,0-1.129,0-1.643,0c-1.158,0-2.352,0.066-3.574,0.193c-1.227,0.13-2.289,0.26-3.189,0.387
		c-0.26,0.26-0.613,0.453-1.063,0.58c-0.453,0.13-1,0.193-1.643,0.193c-0.773,0.13-1.387,0.192-1.836,0.192
		c-0.453,0-0.744,0-0.871,0c-0.902,0-1.932,0-3.092,0c-1.158,0-2.512-0.126-4.059-0.386c-0.902,0-1.676-0.03-2.318-0.097
		c-0.646-0.063-1.227-0.097-1.74-0.097c-0.516,0-0.936-0.03-1.256-0.097c-0.322-0.063-0.549-0.097-0.676-0.097
		c-0.387,0-0.869,0.066-1.449,0.193c-0.58,0.13-1.256,0.26-2.029,0.387c-0.773,0.26-1.387,0.386-1.836,0.386
		c-0.453,0-0.744,0-0.871,0c-0.385,0-0.771,0-1.158,0s-0.84-0.126-1.354-0.386c-0.646-0.127-1.193-0.257-1.643-0.387
		c-0.453-0.127-0.742-0.193-0.869-0.193c-0.518,0-1.131,0.163-1.836,0.483c-0.711,0.322-1.449,0.676-2.223,1.063
		c-0.646,0.387-1.16,0.613-1.547,0.677c-0.387,0.066-0.709,0.097-0.967,0.097c-1.289,0-2.932-0.063-4.928-0.193
		c-1.998-0.127-4.414-0.387-7.246-0.773c-3.094-0.387-5.412-0.706-6.959-0.966c-1.545-0.257-2.512-0.387-2.898-0.387
		c-1.033,0-2.223,0.066-3.576,0.193c-1.352,0.13-2.801,0.26-4.348,0.387c-1.676,0.26-3.029,0.386-4.059,0.386
		c-1.033,0-1.613,0-1.738,0c-1.291,0-2.869-0.03-4.736-0.097c-1.869-0.063-4.027-0.223-6.475-0.482
		c-2.705-0.127-4.994-0.257-6.859-0.387c-1.869-0.127-3.383-0.193-4.543-0.193c-0.387-0.387-0.709-0.707-0.965-0.967
		c-0.26-0.256-0.518-0.513-0.773-0.772c-0.131-0.127-0.227-0.257-0.291-0.387c-0.066-0.127-0.096-0.257-0.096-0.387
		c-0.387-0.387-0.676-0.836-0.869-1.353c-0.193-0.514-0.291-1.029-0.291-1.546c0.127-1.16,0.32-2.383,0.58-3.672
		c0.256-1.287,0.58-2.576,0.967-3.865c0.127-0.387,0.514-0.707,1.158-0.967c0.645-0.257,1.48-0.387,2.514-0.387h2.705
		c0.773,0,1.674,0,2.705,0s2.254-0.127,3.674-0.386c1.285-0.257,2.318-0.45,3.092-0.58c0.773-0.127,1.285-0.193,1.545-0.193
		c0.387,0,0.9-0.03,1.547-0.097c0.643-0.063,1.354-0.224,2.125-0.483c0.645-0.127,1.258-0.257,1.836-0.387
		c0.58-0.126,1.064-0.192,1.451-0.192c0.385,0,0.771,0.066,1.158,0.192c0.387,0.13,0.967,0.26,1.74,0.387
		c0.387,0.26,0.74,0.42,1.063,0.483c0.32,0.066,0.609,0.097,0.869,0.097c0.258,0,0.58,0,0.967,0s0.773-0.127,1.16-0.387
		c0.387-0.127,0.707-0.257,0.967-0.387c0.256-0.127,0.449-0.193,0.578-0.193c0.127,0,0.387,0.066,0.773,0.193
		c0.387,0.13,0.836,0.26,1.354,0.387c0.387,0.26,0.707,0.387,0.967,0.387c0.256,0,0.512,0,0.771,0c0.387,0,0.773,0.033,1.16,0.097
		c0.387,0.066,0.773,0.097,1.16,0.097s0.803,0,1.256,0c0.449,0,0.869,0,1.256,0s0.803,0.033,1.256,0.097
		c0.451,0.066,0.934,0.163,1.449,0.29c0.387,0.13,0.838,0.26,1.354,0.386c0.514,0.13,1.029,0.193,1.547,0.193
		c0.387,0,0.773-0.063,1.158-0.193c0.387-0.126,0.773-0.256,1.16-0.386c0.387-0.127,0.803-0.224,1.256-0.29
		c0.451-0.063,0.998-0.097,1.643-0.097c0.258,0,0.547,0.033,0.871,0.097c0.32,0.066,0.676,0.163,1.063,0.29
		c0.387,0,0.836,0.033,1.354,0.097c0.512,0.066,1.092,0.097,1.738,0.097c1.16,0.259,2.156,0.386,2.996,0.386
		c0.836,0,1.576,0,2.223,0c0.256,0,0.609,0,1.063,0c0.449,0,0.996-0.127,1.643-0.386c0.514-0.257,1.029-0.45,1.547-0.58
		c0.512-0.127,0.898-0.193,1.158-0.193c0.127,0,0.387-0.063,0.773-0.193c0.387-0.127,0.9-0.193,1.547-0.193
		c0.9,0.26,1.738,0.387,2.512,0.387s1.416,0,1.934,0c0.387,0,0.932,0,1.643,0c0.705,0,1.512-0.127,2.416-0.387
		c0.771-0.127,1.449-0.257,2.029-0.387c0.578-0.127,1.063-0.193,1.449-0.193c4.252,0,9.146,0.066,14.688,0.193
		c5.537,0.13,11.658,0.26,18.359,0.387c6.697,0.26,12.014,0.387,15.945,0.387c3.928,0,6.473,0,7.633,0
		c0.514,0,1.287-0.03,2.32-0.097c1.029-0.063,2.318-0.224,3.865-0.483c1.285-0.127,2.541-0.257,3.768-0.387
		c1.223-0.126,2.223-0.192,2.996-0.192s1.738,0.066,2.898,0.192c1.16,0.13,2.576,0.26,4.252,0.387
		c1.416,0.26,2.639,0.42,3.672,0.483C1345.977,1016.141,1346.881,1016.171,1347.652,1016.171z M1331.033,1095.021
		c0.127,0.387,0.256,0.87,0.387,1.45c0.125,0.579,0.193,1.256,0.193,2.029c0,1.416-0.098,2.898-0.291,4.444
		c-0.193,1.547-0.42,3.22-0.676,5.025c-0.387,1.803-0.744,3.542-1.063,5.218c-0.324,1.673-0.551,3.349-0.678,5.025
		c-0.646,0-1.418,0.159-2.318,0.482c-0.902,0.32-2,0.677-3.285,1.063c-1.42,0.387-2.609,0.676-3.576,0.869s-1.773,0.29-2.416,0.29
		c-0.646,0-1.256,0-1.836,0s-1.193-0.066-1.836-0.193c-0.773,0-1.545-0.066-2.318-0.193c-0.773-0.13-1.547-0.26-2.32-0.386
		c-1.932-0.26-3.607-0.453-5.023-0.58c-1.42-0.13-2.58-0.193-3.48-0.193h-3.092h-2.512h-2.318c-1.291,0-2.514,0-3.674,0
		c-1.158,0-2.318,0-3.479,0c-1.158,0-2.352-0.033-3.574-0.097c-1.227-0.066-2.416-0.097-3.576-0.097h-1.932
		c-0.773,0-1.613,0.063-2.514,0.193c-0.902,0.127-1.805,0.257-2.705,0.387c-0.646,0.127-1.16,0.224-1.547,0.29
		c-0.385,0.063-0.771,0.097-1.158,0.097s-0.678,0-0.871,0s-0.355,0-0.482,0c-1.033,0-1.965,0-2.803,0c-0.84,0-1.578,0-2.223,0
		c-0.646,0-1.256-0.033-1.836-0.097c-0.58-0.066-1.063-0.097-1.449-0.097c-4.898-0.387-8.537-0.646-10.92-0.773
		c-2.385-0.13-7.955-0.066-16.717,0.193h-3.672h-3.479c-1.547,0-3.158,0-4.832,0c-1.676,0-3.414,0-5.217,0
		c-1.807,0-3.836-0.163-6.088-0.483c-2.256-0.323-4.609-0.676-7.055-1.063c-0.773-0.773-1.42-1.836-1.932-3.189
		c-0.518-1.353-0.967-2.868-1.354-4.541c-0.387-1.806-0.646-3.512-0.773-5.122c-0.129-1.612-0.193-3.125-0.193-4.541
		c0-0.387,0.031-0.934,0.098-1.643c0.063-0.707,0.289-1.514,0.676-2.416c0-0.387,0.063-0.804,0.193-1.257
		c0.127-0.449,0.193-0.803,0.193-1.063c0.127-0.387,0.223-0.707,0.289-0.967c0.064-0.256,0.098-0.513,0.098-0.772v-0.773
		c-0.646-0.513-1.063-1.189-1.256-2.029c-0.193-0.836-0.291-1.836-0.291-2.995c0-2.963,0.484-5.475,1.449-7.537
		c0.967-2.06,2.609-3.799,4.928-5.219c1.547-0.899,3.543-1.609,5.992-2.126c2.445-0.513,5.281-0.772,8.504-0.772
		c1.545,0,2.928,0,4.154,0c1.223,0,2.416-0.063,3.576-0.193c1.932,0,3.639-0.063,5.121-0.193c1.48-0.127,2.803-0.193,3.961-0.193
		c1.16-0.127,2.061-0.224,2.707-0.29c0.643-0.063,1.092-0.097,1.352-0.097c0.514,0,1.191,0.033,2.029,0.097
		c0.838,0.066,1.836,0.097,2.996,0.097c1.029,0,2.223,0.033,3.576,0.097c1.352,0.066,2.865,0.097,4.541,0.097
		c2.963,0.26,5.248,0.387,6.861,0.387c1.609,0,2.543,0,2.803,0c1.803,0.26,3.672,0.483,5.604,0.677
		c1.934,0.193,3.865,0.289,5.799,0.289c0.512,0,1.383,0,2.607,0s2.609-0.126,4.156-0.386c0.773,0,1.449-0.03,2.029-0.097
		c0.58-0.063,1.063-0.097,1.449-0.097c0.514,0,0.9-0.03,1.16-0.097c0.256-0.063,0.449-0.097,0.58-0.097
		c0.898,0,2.029,0.033,3.381,0.097c1.354,0.066,2.865,0.097,4.543,0.097c1.672,0,3.541,0.033,5.604,0.097
		c2.061,0.066,4.314,0.097,6.764,0.097c4.639,0.26,8.277,0.386,10.92,0.386c2.639,0,4.156,0,4.541,0c1.547,0,3.061,0.55,4.543,1.644
		c1.479,1.096,2.803,2.675,3.961,4.734c1.029,2.063,1.867,4.092,2.514,6.088c0.643,1.999,0.965,3.835,0.965,5.508
		c0,0.13-0.033,0.29-0.096,0.483c-0.066,0.193-0.164,0.42-0.291,0.677c0,0.26-0.066,0.549-0.191,0.869
		c-0.131,0.323-0.193,0.613-0.193,0.87c-0.26,0.646-0.387,1.192-0.387,1.643C1331.033,1094.605,1331.033,1094.896,1331.033,1095.021
		z M1309.58,1090.384c-0.387-0.127-0.84-0.29-1.354-0.483c-0.516-0.193-1.158-0.417-1.932-0.677
		c-0.773-0.256-1.42-0.449-1.934-0.579c-0.516-0.127-0.838-0.193-0.965-0.193c-0.518,0-1.16,0.066-1.934,0.193
		c-0.773,0.13-1.676,0.26-2.705,0.387c-1.16,0.259-2.096,0.419-2.803,0.482c-0.709,0.066-1.256,0.097-1.643,0.097
		c-1.289,0-2.609-0.097-3.961-0.29c-1.354-0.193-2.609-0.482-3.77-0.869c-0.387,0-0.807-0.063-1.256-0.193
		c-0.453-0.127-1-0.193-1.643-0.193c-0.902,0-1.643,0-2.223,0s-1.063,0-1.449,0c-0.518,0-1.098,0.033-1.74,0.097
		c-0.646,0.066-1.289,0.097-1.932,0.097c-0.773,0-1.58,0-2.416,0c-0.84,0-1.709,0-2.609,0c-1.033,0-1.902,0.033-2.609,0.097
		c-0.709,0.066-1.322,0.097-1.836,0.097c-0.646,0-1.129,0-1.449,0c-0.322,0-0.549,0-0.676,0c-0.518,0-1.064,0-1.643,0
		c-0.58,0-1.193,0-1.836,0c-0.646,0-1.354-0.03-2.127-0.097c-0.773-0.063-1.613-0.16-2.512-0.29
		c-1.807-0.127-3.256-0.257-4.35-0.387c-1.096-0.127-1.836-0.193-2.223-0.193c-1.289,0-2.771,0.066-4.443,0.193
		c-1.678,0.13-3.48,0.26-5.412,0.387c-1.033,0.13-1.967,0.227-2.803,0.29c-0.84,0.066-1.516,0.097-2.029,0.097
		c-0.646,0-1.193,0-1.643,0c-0.453,0-0.742,0-0.869,0c-0.387,0-0.869-0.03-1.449-0.097c-0.58-0.063-1.131-0.16-1.643-0.29
		c-0.773-0.127-1.354-0.257-1.74-0.387c-0.387-0.127-0.646-0.193-0.773-0.193c-1.033,0-1.965,0.163-2.803,0.483
		c-0.838,0.323-1.643,0.677-2.414,1.063c-0.646,0.646-1.16,1.353-1.547,2.125c-0.387,0.773-0.646,1.547-0.773,2.319
		c-0.26,0.773-0.387,1.676-0.387,2.706c0,1.032,0,2.126,0,3.285v0.773c0.258,0.643,0.773,1.093,1.547,1.353
		c0.773,0.257,1.738,0.387,2.898,0.387l5.605,0.58c0.773,0,1.898-0.033,3.381-0.097c1.48-0.066,3.189-0.227,5.123-0.483
		c1.932-0.13,3.605-0.26,5.023-0.387c1.416-0.13,2.641-0.193,3.672-0.193c0.9,0,1.934,0.063,3.094,0.193
		c1.158,0.127,2.381,0.257,3.672,0.387c1.416,0.257,2.734,0.483,3.961,0.677c1.223,0.192,2.285,0.289,3.189,0.289
		c0.898,0.127,1.705,0.224,2.416,0.29c0.705,0.063,1.256,0.097,1.643,0.097c1.932,0,4.252-0.033,6.957-0.097
		c2.705-0.066,5.797-0.227,9.277-0.482c3.479-0.26,6.344-0.453,8.6-0.58c2.252-0.13,3.961-0.193,5.121-0.193
		c0.514,0,1.223,0.063,2.125,0.193c0.9,0.127,2.127,0.32,3.674,0.58c1.285,0.256,2.348,0.416,3.188,0.482
		c0.836,0.063,1.449,0.097,1.836,0.097c0.773,0,1.416-0.227,1.934-0.676c0.514-0.453,0.965-1.063,1.352-1.836
		c0.258-1.03,0.484-2.029,0.678-2.996c0.193-0.966,0.289-1.963,0.289-2.995v-1.74V1090.384z M1255.66,1046.513
		c0,2.319-0.355,4.349-1.063,6.088c-0.711,1.739-1.643,3.189-2.803,4.349c-1.547,1.546-3.158,2.609-4.832,3.188
		c-1.676,0.58-3.545,0.87-5.604,0.87c-2.449,0-4.609-0.16-6.475-0.483c-1.869-0.32-3.383-0.869-4.543-1.643
		c-1.676-1.029-2.898-2.35-3.672-3.962c-0.771-1.609-1.158-3.575-1.158-5.895c0-2.832,0.289-5.314,0.869-7.44
		s1.449-3.769,2.609-4.929c1.16-1.159,2.832-2.029,5.025-2.608c2.188-0.58,4.957-0.87,8.309-0.87c1.934,0,3.672,0.323,5.219,0.967
		c1.547,0.646,3.025,1.546,4.445,2.705c1.16,1.29,2.059,2.739,2.705,4.349C1255.338,1042.811,1255.66,1044.58,1255.66,1046.513z
		 M1299.531,979.258c0,4.252-1,8.28-2.996,12.079c-2,3.802-4.928,7.247-8.793,10.339c-3.996,3.093-8.088,5.445-12.273,7.055
		c-4.188,1.612-8.406,2.415-12.658,2.415c-0.387,0-1.227-0.096-2.512-0.289c-1.289-0.193-2.965-0.61-5.025-1.257
		c-2.191-0.513-3.898-0.996-5.121-1.449c-1.227-0.45-1.902-0.87-2.029-1.256c-0.646-0.127-1.193-0.354-1.643-0.677
		c-0.453-0.32-0.869-0.677-1.256-1.063c-1.934-0.773-3.836-1.963-5.701-3.576c-1.869-1.609-3.643-3.769-5.316-6.474
		c-1.932-2.576-3.318-5.025-4.154-7.345c-0.84-2.318-1.256-4.638-1.256-6.957c0-1.546,0.127-3.479,0.387-5.798
		c0.256-2.319,0.707-5.088,1.352-8.311c0.514-3.092,1.16-5.635,1.934-7.634c0.773-1.996,1.547-3.382,2.318-4.155
		c0.127-0.127,0.291-0.257,0.484-0.386c0.193-0.127,0.416-0.257,0.676-0.387c0.256-0.127,0.482-0.257,0.676-0.387
		c0.193-0.127,0.418-0.32,0.678-0.58c0.387-0.127,0.803-0.417,1.256-0.869c0.449-0.45,0.996-1.063,1.643-1.836
		c0.127-0.257,0.256-0.45,0.387-0.58c0.127-0.257,0.289-0.514,0.482-0.773c0.193-0.257,0.418-0.579,0.678-0.966
		c0.125-0.257,0.289-0.514,0.482-0.773c0.193-0.257,0.354-0.513,0.482-0.772c0.127-0.127,0.291-0.29,0.484-0.483
		s0.416-0.354,0.676-0.483c2.059-1.546,4.281-2.769,6.668-3.672c2.383-0.9,4.928-1.353,7.633-1.353c0.773,0,1.576,0.033,2.416,0.097
		c0.836,0.066,1.643,0.097,2.416,0.097s1.547,0,2.318,0c0.773,0,1.547,0,2.32,0c0.643,0.13,1.32,0.226,2.029,0.289
		c0.707,0.066,1.383,0.163,2.029,0.29c0.773,0,1.545,0.066,2.318,0.193c0.773,0.13,1.547,0.193,2.32,0.193l1.158,1.933
		c0.387,0.26,0.871,0.42,1.451,0.483c0.578,0.066,1.318,0.097,2.221,0.097c0.9,0.13,1.707,0.26,2.416,0.387
		c0.707,0.13,1.383,0.192,2.029,0.192c2.963,2.579,5.412,5.092,7.344,7.538c1.934,2.448,3.287,4.768,4.059,6.957
		c0.773,2.319,1.383,5.154,1.836,8.504C1299.305,971.207,1299.531,975.006,1299.531,979.258z M1260.686,958.386
		c-0.26,0.386-0.551,0.612-0.871,0.676c-0.322,0.066-0.676,0.097-1.063,0.097c-0.26,0.13-0.482,0.227-0.676,0.29
		c-0.193,0.066-0.42,0.097-0.676,0.097c-0.131,0-0.291,0.033-0.484,0.097c-0.193,0.066-0.58,0.26-1.16,0.58
		c-0.578,0.322-1.352,0.772-2.318,1.353s-1.709,1.256-2.223,2.029c-0.26,0.387-0.807,1.419-1.643,3.092
		c-0.84,1.676-1.836,3.932-2.996,6.765c0.514,2.705,1.031,4.961,1.547,6.764c0.514,1.806,1.029,3.093,1.547,3.865
		c1.158,3.093,2.832,5.412,5.023,6.958c2.189,1.546,4.959,2.319,8.311,2.319c2.189,0,4.314-0.417,6.377-1.257
		c2.061-0.836,4.123-2.156,6.186-3.962c1.803-1.546,3.189-3.315,4.154-5.314c0.967-1.996,1.449-4.089,1.449-6.281
		c0-3.092-0.482-5.798-1.449-8.117c-0.965-2.318-2.352-4.185-4.154-5.604c-1.676-1.029-3.738-1.899-6.186-2.608
		C1266.934,959.515,1264.033,958.901,1260.686,958.386z M1283.297,1061.974c-2.32,0-4.416-0.192-6.281-0.579
		c-1.869-0.387-3.512-1.03-4.928-1.933c-1.807-1.03-3.125-2.319-3.963-3.865c-0.84-1.547-1.256-3.35-1.256-5.412
		c0-2.962,0.291-5.538,0.869-7.73c0.58-2.188,1.451-3.865,2.609-5.024c1.16-1.159,2.832-2.029,5.025-2.609
		c2.189-0.579,4.959-0.869,8.311-0.869c1.545,0,3.059,0.29,4.541,0.869c1.48,0.58,2.996,1.387,4.541,2.416
		c1.287,1.16,2.32,2.416,3.094,3.769c0.771,1.353,1.158,2.739,1.158,4.155c0,2.449-0.289,4.608-0.869,6.475
		c-0.58,1.869-1.387,3.512-2.416,4.928c-1.418,1.933-2.996,3.319-4.734,4.155
		C1287.258,1061.558,1285.355,1061.974,1283.297,1061.974z"/>
</g>
</svg>
